<svg xmlns="http://www.w3.org/2000/svg" width="64" height="64" viewBox="0 0 64 64" role="img" aria-label="bug">
  <defs>
    <linearGradient id="sh-bug" x1="0" y1="0" x2="0" y2="1">
      <stop offset="0" stop-color="#FFFFFF" stop-opacity="0.32"></stop>
      <stop offset="0.5" stop-color="#FFFFFF" stop-opacity="0.04"></stop>
      <stop offset="0.72" stop-color="#000000" stop-opacity="0.06"></stop>
      <stop offset="1" stop-color="#000000" stop-opacity="0.26"></stop>
    </linearGradient>
    <radialGradient id="hl-bug" cx="0.32" cy="0.2" r="0.75">
      <stop offset="0" stop-color="#FFFFFF" stop-opacity="0.34"></stop>
      <stop offset="1" stop-color="#FFFFFF" stop-opacity="0"></stop>
    </radialGradient>
  </defs>
  <circle cx="32" cy="32" r="32" fill="#B8E000"></circle>
  <circle cx="32" cy="32" r="32" fill="url(#hl-bug)"></circle>
  <circle cx="32" cy="32" r="32" fill="url(#sh-bug)"></circle>
  <circle cx="32" cy="32" r="31" fill="none" stroke="#FFFFFF" stroke-opacity="0.22" stroke-width="1.4"></circle>
  <g transform="translate(12 13.4) scale(1.6667)" fill="none" stroke="rgba(0,0,0,0.28)" stroke-width="2.6" stroke-linecap="round" stroke-linejoin="round"><path d="m8 2 1.88 1.88"></path><path d="M14.12 3.88 16 2"></path><path d="M9 7.13v-1a3.003 3.003 0 1 1 6 0v1"></path><path d="M12 20c-3.3 0-6-2.7-6-6v-3a4 4 0 0 1 4-4h4a4 4 0 0 1 4 4v3c0 3.3-2.7 6-6 6"></path><path d="M12 20v-9"></path><path d="M6.53 9C4.6 8.8 3 7.1 3 5"></path><path d="M6 13H2"></path><path d="M3 21c0-2.1 1.7-3.9 3.8-4"></path><path d="M20.97 5c0 2.1-1.6 3.8-3.5 4"></path><path d="M22 13h-4"></path><path d="M17.2 17c2.1.1 3.8 1.9 3.8 4"></path></g>
  <g transform="translate(12 12) scale(1.6667)" fill="none" stroke="#FFFFFF" stroke-width="2.2" stroke-linecap="round" stroke-linejoin="round"><path d="m8 2 1.88 1.88"></path><path d="M14.12 3.88 16 2"></path><path d="M9 7.13v-1a3.003 3.003 0 1 1 6 0v1"></path><path d="M12 20c-3.3 0-6-2.7-6-6v-3a4 4 0 0 1 4-4h4a4 4 0 0 1 4 4v3c0 3.3-2.7 6-6 6"></path><path d="M12 20v-9"></path><path d="M6.53 9C4.6 8.8 3 7.1 3 5"></path><path d="M6 13H2"></path><path d="M3 21c0-2.1 1.7-3.9 3.8-4"></path><path d="M20.97 5c0 2.1-1.6 3.8-3.5 4"></path><path d="M22 13h-4"></path><path d="M17.2 17c2.1.1 3.8 1.9 3.8 4"></path></g>
</svg>