<svg xmlns="http://www.w3.org/2000/svg" width="64" height="64" viewBox="0 0 64 64" role="img" aria-label="grass">
  <defs>
    <linearGradient id="sh-grass" x1="0" y1="0" x2="0" y2="1">
      <stop offset="0" stop-color="#FFFFFF" stop-opacity="0.32"></stop>
      <stop offset="0.5" stop-color="#FFFFFF" stop-opacity="0.04"></stop>
      <stop offset="0.72" stop-color="#000000" stop-opacity="0.06"></stop>
      <stop offset="1" stop-color="#000000" stop-opacity="0.26"></stop>
    </linearGradient>
    <radialGradient id="hl-grass" cx="0.32" cy="0.2" r="0.75">
      <stop offset="0" stop-color="#FFFFFF" stop-opacity="0.34"></stop>
      <stop offset="1" stop-color="#FFFFFF" stop-opacity="0"></stop>
    </radialGradient>
  </defs>
  <circle cx="32" cy="32" r="32" fill="#14C445"></circle>
  <circle cx="32" cy="32" r="32" fill="url(#hl-grass)"></circle>
  <circle cx="32" cy="32" r="32" fill="url(#sh-grass)"></circle>
  <circle cx="32" cy="32" r="31" fill="none" stroke="#FFFFFF" stroke-opacity="0.22" stroke-width="1.4"></circle>
  <g transform="translate(12 13.4) scale(1.6667)" fill="none" stroke="rgba(0,0,0,0.28)" stroke-width="2.6" stroke-linecap="round" stroke-linejoin="round"><path d="M11 20A7 7 0 0 1 9.8 6.1C15.5 5 17 4.48 19 2c1 2 2 4.18 2 8 0 5.5-4.78 10-10 10Z"></path><path d="M2 21c0-3 1.85-5.36 5.08-6C9.5 14.52 12 13 13 12"></path></g>
  <g transform="translate(12 12) scale(1.6667)" fill="none" stroke="#FFFFFF" stroke-width="2.2" stroke-linecap="round" stroke-linejoin="round"><path d="M11 20A7 7 0 0 1 9.8 6.1C15.5 5 17 4.48 19 2c1 2 2 4.18 2 8 0 5.5-4.78 10-10 10Z"></path><path d="M2 21c0-3 1.85-5.36 5.08-6C9.5 14.52 12 13 13 12"></path></g>
</svg>