<svg xmlns="http://www.w3.org/2000/svg" width="64" height="64" viewBox="0 0 64 64" role="img" aria-label="poison">
  <defs>
    <linearGradient id="sh-poison" x1="0" y1="0" x2="0" y2="1">
      <stop offset="0" stop-color="#FFFFFF" stop-opacity="0.32"></stop>
      <stop offset="0.5" stop-color="#FFFFFF" stop-opacity="0.04"></stop>
      <stop offset="0.72" stop-color="#000000" stop-opacity="0.06"></stop>
      <stop offset="1" stop-color="#000000" stop-opacity="0.26"></stop>
    </linearGradient>
    <radialGradient id="hl-poison" cx="0.32" cy="0.2" r="0.75">
      <stop offset="0" stop-color="#FFFFFF" stop-opacity="0.34"></stop>
      <stop offset="1" stop-color="#FFFFFF" stop-opacity="0"></stop>
    </radialGradient>
  </defs>
  <circle cx="32" cy="32" r="32" fill="#A733FF"></circle>
  <circle cx="32" cy="32" r="32" fill="url(#hl-poison)"></circle>
  <circle cx="32" cy="32" r="32" fill="url(#sh-poison)"></circle>
  <circle cx="32" cy="32" r="31" fill="none" stroke="#FFFFFF" stroke-opacity="0.22" stroke-width="1.4"></circle>
  <g transform="translate(12 13.4) scale(1.6667)" fill="none" stroke="rgba(0,0,0,0.28)" stroke-width="2.6" stroke-linecap="round" stroke-linejoin="round"><path d="m12.5 17-.5-1-.5 1h1z"></path><path d="M15 22a1 1 0 0 0 1-1v-1a2 2 0 0 0 1.56-3.25 8 8 0 1 0-11.12 0A2 2 0 0 0 8 20v1a1 1 0 0 0 1 1z"></path><circle cx="15" cy="12" r="1"></circle><circle cx="9" cy="12" r="1"></circle></g>
  <g transform="translate(12 12) scale(1.6667)" fill="none" stroke="#FFFFFF" stroke-width="2.2" stroke-linecap="round" stroke-linejoin="round"><path d="m12.5 17-.5-1-.5 1h1z"></path><path d="M15 22a1 1 0 0 0 1-1v-1a2 2 0 0 0 1.56-3.25 8 8 0 1 0-11.12 0A2 2 0 0 0 8 20v1a1 1 0 0 0 1 1z"></path><circle cx="15" cy="12" r="1"></circle><circle cx="9" cy="12" r="1"></circle></g>
</svg>