<svg xmlns="http://www.w3.org/2000/svg" width="64" height="64" viewBox="0 0 64 64" role="img" aria-label="rock">
  <defs>
    <linearGradient id="sh-rock" x1="0" y1="0" x2="0" y2="1">
      <stop offset="0" stop-color="#FFFFFF" stop-opacity="0.32"></stop>
      <stop offset="0.5" stop-color="#FFFFFF" stop-opacity="0.04"></stop>
      <stop offset="0.72" stop-color="#000000" stop-opacity="0.06"></stop>
      <stop offset="1" stop-color="#000000" stop-opacity="0.26"></stop>
    </linearGradient>
    <radialGradient id="hl-rock" cx="0.32" cy="0.2" r="0.75">
      <stop offset="0" stop-color="#FFFFFF" stop-opacity="0.34"></stop>
      <stop offset="1" stop-color="#FFFFFF" stop-opacity="0"></stop>
    </radialGradient>
  </defs>
  <circle cx="32" cy="32" r="32" fill="#D4A72C"></circle>
  <circle cx="32" cy="32" r="32" fill="url(#hl-rock)"></circle>
  <circle cx="32" cy="32" r="32" fill="url(#sh-rock)"></circle>
  <circle cx="32" cy="32" r="31" fill="none" stroke="#FFFFFF" stroke-opacity="0.22" stroke-width="1.4"></circle>
  <g transform="translate(12 13.4) scale(1.6667)" fill="none" stroke="rgba(0,0,0,0.28)" stroke-width="2.6" stroke-linecap="round" stroke-linejoin="round"><path d="M12.83 2.18a2 2 0 0 0-1.66 0L2.6 6.08a1 1 0 0 0 0 1.83l8.58 3.91a2 2 0 0 0 1.66 0l8.58-3.9a1 1 0 0 0 0-1.83z"></path><path d="M2 12a1 1 0 0 0 .58.91l8.6 3.91a2 2 0 0 0 1.65 0l8.58-3.9A1 1 0 0 0 22 12"></path><path d="M2 17a1 1 0 0 0 .58.91l8.6 3.91a2 2 0 0 0 1.65 0l8.58-3.9A1 1 0 0 0 22 17"></path></g>
  <g transform="translate(12 12) scale(1.6667)" fill="none" stroke="#FFFFFF" stroke-width="2.2" stroke-linecap="round" stroke-linejoin="round"><path d="M12.83 2.18a2 2 0 0 0-1.66 0L2.6 6.08a1 1 0 0 0 0 1.83l8.58 3.91a2 2 0 0 0 1.66 0l8.58-3.9a1 1 0 0 0 0-1.83z"></path><path d="M2 12a1 1 0 0 0 .58.91l8.6 3.91a2 2 0 0 0 1.65 0l8.58-3.9A1 1 0 0 0 22 12"></path><path d="M2 17a1 1 0 0 0 .58.91l8.6 3.91a2 2 0 0 0 1.65 0l8.58-3.9A1 1 0 0 0 22 17"></path></g>
</svg>