<svg xmlns="http://www.w3.org/2000/svg" width="64" height="64" viewBox="0 0 64 64" role="img" aria-label="ghost">
  <defs>
    <linearGradient id="sh-ghost" x1="0" y1="0" x2="0" y2="1">
      <stop offset="0" stop-color="#FFFFFF" stop-opacity="0.32"></stop>
      <stop offset="0.5" stop-color="#FFFFFF" stop-opacity="0.04"></stop>
      <stop offset="0.72" stop-color="#000000" stop-opacity="0.06"></stop>
      <stop offset="1" stop-color="#000000" stop-opacity="0.26"></stop>
    </linearGradient>
    <radialGradient id="hl-ghost" cx="0.32" cy="0.2" r="0.75">
      <stop offset="0" stop-color="#FFFFFF" stop-opacity="0.34"></stop>
      <stop offset="1" stop-color="#FFFFFF" stop-opacity="0"></stop>
    </radialGradient>
  </defs>
  <circle cx="32" cy="32" r="32" fill="#8A45E8"></circle>
  <circle cx="32" cy="32" r="32" fill="url(#hl-ghost)"></circle>
  <circle cx="32" cy="32" r="32" fill="url(#sh-ghost)"></circle>
  <circle cx="32" cy="32" r="31" fill="none" stroke="#FFFFFF" stroke-opacity="0.22" stroke-width="1.4"></circle>
  <g transform="translate(12 13.4) scale(1.6667)" fill="none" stroke="rgba(0,0,0,0.28)" stroke-width="2.6" stroke-linecap="round" stroke-linejoin="round"><path d="M9 10h.01"></path><path d="M15 10h.01"></path><path d="M12 2a8 8 0 0 0-8 8v12l3-3 2.5 2.5L12 19l2.5 2.5L17 19l3 3V10a8 8 0 0 0-8-8z"></path></g>
  <g transform="translate(12 12) scale(1.6667)" fill="none" stroke="#FFFFFF" stroke-width="2.2" stroke-linecap="round" stroke-linejoin="round"><path d="M9 10h.01"></path><path d="M15 10h.01"></path><path d="M12 2a8 8 0 0 0-8 8v12l3-3 2.5 2.5L12 19l2.5 2.5L17 19l3 3V10a8 8 0 0 0-8-8z"></path></g>
</svg>