<svg xmlns="http://www.w3.org/2000/svg" width="64" height="64" viewBox="0 0 64 64" role="img" aria-label="psychic">
  <defs>
    <linearGradient id="sh-psychic" x1="0" y1="0" x2="0" y2="1">
      <stop offset="0" stop-color="#FFFFFF" stop-opacity="0.32"></stop>
      <stop offset="0.5" stop-color="#FFFFFF" stop-opacity="0.04"></stop>
      <stop offset="0.72" stop-color="#000000" stop-opacity="0.06"></stop>
      <stop offset="1" stop-color="#000000" stop-opacity="0.26"></stop>
    </linearGradient>
    <radialGradient id="hl-psychic" cx="0.32" cy="0.2" r="0.75">
      <stop offset="0" stop-color="#FFFFFF" stop-opacity="0.34"></stop>
      <stop offset="1" stop-color="#FFFFFF" stop-opacity="0"></stop>
    </radialGradient>
  </defs>
  <circle cx="32" cy="32" r="32" fill="#FF2E7E"></circle>
  <circle cx="32" cy="32" r="32" fill="url(#hl-psychic)"></circle>
  <circle cx="32" cy="32" r="32" fill="url(#sh-psychic)"></circle>
  <circle cx="32" cy="32" r="31" fill="none" stroke="#FFFFFF" stroke-opacity="0.22" stroke-width="1.4"></circle>
  <g transform="translate(12 13.4) scale(1.6667)" fill="none" stroke="rgba(0,0,0,0.28)" stroke-width="2.6" stroke-linecap="round" stroke-linejoin="round"><path d="M12 5a3 3 0 1 0-5.997.125 4 4 0 0 0-2.526 5.77 4 4 0 0 0 .556 6.588A4 4 0 1 0 12 18Z"></path><path d="M12 5a3 3 0 1 1 5.997.125 4 4 0 0 1 2.526 5.77 4 4 0 0 1-.556 6.588A4 4 0 1 1 12 18Z"></path><path d="M15 13a4.5 4.5 0 0 1-3-4 4.5 4.5 0 0 1-3 4"></path><path d="M17.599 6.5a3 3 0 0 0 .399-1.375"></path><path d="M6.003 5.125A3 3 0 0 0 6.401 6.5"></path><path d="M3.477 10.896a4 4 0 0 1 .585-.396"></path><path d="M19.938 10.5a4 4 0 0 1 .585.396"></path><path d="M6 18a4 4 0 0 1-1.967-.516"></path><path d="M19.967 17.484A4 4 0 0 1 18 18"></path></g>
  <g transform="translate(12 12) scale(1.6667)" fill="none" stroke="#FFFFFF" stroke-width="2.2" stroke-linecap="round" stroke-linejoin="round"><path d="M12 5a3 3 0 1 0-5.997.125 4 4 0 0 0-2.526 5.77 4 4 0 0 0 .556 6.588A4 4 0 1 0 12 18Z"></path><path d="M12 5a3 3 0 1 1 5.997.125 4 4 0 0 1 2.526 5.77 4 4 0 0 1-.556 6.588A4 4 0 1 1 12 18Z"></path><path d="M15 13a4.5 4.5 0 0 1-3-4 4.5 4.5 0 0 1-3 4"></path><path d="M17.599 6.5a3 3 0 0 0 .399-1.375"></path><path d="M6.003 5.125A3 3 0 0 0 6.401 6.5"></path><path d="M3.477 10.896a4 4 0 0 1 .585-.396"></path><path d="M19.938 10.5a4 4 0 0 1 .585.396"></path><path d="M6 18a4 4 0 0 1-1.967-.516"></path><path d="M19.967 17.484A4 4 0 0 1 18 18"></path></g>
</svg>